<svg width="20" height="21" viewBox="0 0 20 21" fill="none" xmlns="http://www.w3.org/2000/svg">
<path d="M2.5 9.66667C2.5 6.52417 2.5 4.9525 3.47667 3.97667C4.45333 3.00083 6.02417 3 9.16667 3H10.8333C13.9758 3 15.5475 3 16.5233 3.97667C17.4992 4.95333 17.5 6.52417 17.5 9.66667V11.3333C17.5 14.4758 17.5 16.0475 16.5233 17.0233C15.5467 17.9992 13.9758 18 10.8333 18H9.16667C6.02417 18 4.4525 18 3.47667 17.0233C2.50083 16.0467 2.5 14.4758 2.5 11.3333V9.66667Z" stroke="white"/>
<path d="M13.75 8C14.4404 8 15 7.44036 15 6.75C15 6.05964 14.4404 5.5 13.75 5.5C13.0596 5.5 12.5 6.05964 12.5 6.75C12.5 7.44036 13.0596 8 13.75 8Z" fill="white"/>
<path d="M10 13.4168C11.6109 13.4168 12.9167 12.111 12.9167 10.5002C12.9167 8.88933 11.6109 7.5835 10 7.5835C8.38921 7.5835 7.08337 8.88933 7.08337 10.5002C7.08337 12.111 8.38921 13.4168 10 13.4168Z" stroke="white"/>
</svg>
