<svg width="20" height="21" viewBox="0 0 20 21" fill="none" xmlns="http://www.w3.org/2000/svg">
<mask id="mask0_49_188" style="mask-type:luminance" maskUnits="userSpaceOnUse" x="1" y="2" width="18" height="17">
<path d="M1.66675 2.16675H18.3334V18.8334H1.66675V2.16675Z" fill="white"/>
</mask>
<g mask="url(#mask0_49_188)">
<path d="M7.77505 10.6835V11.1168C7.77505 11.1918 7.73338 11.2252 7.65838 11.2252H5.93338C5.83338 11.2252 5.80005 11.2252 5.80005 11.0918V8.41684C5.80005 8.30851 5.80005 8.27517 5.94172 8.27517H6.32505C6.42505 8.27517 6.45838 8.31684 6.45838 8.40851V10.5418H7.68338C7.70762 10.5445 7.73027 10.5552 7.74766 10.5723C7.76505 10.5894 7.77617 10.6118 7.77922 10.636C7.78248 10.6519 7.78103 10.6684 7.77505 10.6835ZM8.84171 8.40851V11.0918C8.84171 11.1918 8.84171 11.2252 8.70005 11.2252C8.56671 11.2335 8.43338 11.2335 8.30005 11.2252C8.28189 11.228 8.26331 11.2265 8.24584 11.2208C8.22836 11.2152 8.21247 11.2054 8.19948 11.1924C8.18648 11.1794 8.17674 11.1635 8.17104 11.1461C8.16535 11.1286 8.16387 11.11 8.16672 11.0918V8.40851C8.1623 8.38662 8.16383 8.36395 8.17114 8.34286C8.17845 8.32176 8.19128 8.30301 8.20829 8.28855C8.2253 8.27409 8.24588 8.26445 8.26788 8.26063C8.28987 8.25681 8.31249 8.25896 8.33338 8.26684H8.72505C8.74225 8.26783 8.75907 8.27237 8.77444 8.28017C8.78981 8.28797 8.80339 8.29887 8.81435 8.31217C8.82531 8.32547 8.83339 8.3409 8.8381 8.35748C8.84281 8.37406 8.84404 8.39143 8.84171 8.40851ZM11.8667 8.40017V11.0918C11.8667 11.1835 11.8667 11.2168 11.7334 11.2168H11.3084C11.2889 11.2175 11.2695 11.2133 11.252 11.2046C11.2345 11.1959 11.2195 11.1829 11.2084 11.1668L10.5834 10.3335L10 9.54184V9.48351V11.1002C10 11.2168 10 11.2418 9.85838 11.2418H9.47505C9.44762 11.2462 9.41954 11.2406 9.39587 11.2261C9.37219 11.2116 9.35447 11.1891 9.34588 11.1627C9.34025 11.1452 9.33882 11.1266 9.34171 11.1085V8.41684C9.34047 8.40011 9.34285 8.3833 9.34869 8.36757C9.35453 8.35184 9.3637 8.33755 9.37556 8.32569C9.38743 8.31382 9.40172 8.30466 9.41745 8.29882C9.43318 8.29297 9.44998 8.2906 9.46671 8.29184H9.92505C9.94041 8.2943 9.95505 8.30004 9.968 8.30867C9.98094 8.3173 9.99187 8.32861 10 8.34184L10.9167 9.66684L11.1584 9.99184V10.0335V8.41684C11.1584 8.30851 11.2 8.26684 11.3084 8.26684H11.6834C11.8167 8.26684 11.8667 8.30851 11.8667 8.40017ZM14.2917 8.41684V8.83351C14.2917 8.92517 14.2917 8.96684 14.1667 8.96684H13.0417C12.9834 8.96684 12.9834 8.96684 12.9834 9.02517V9.37517C12.9834 9.44184 12.9834 9.44184 13.0417 9.44184H14.1667C14.275 9.44184 14.3084 9.48351 14.3084 9.59184V9.97517C14.3112 9.99333 14.3097 10.0119 14.3041 10.0294C14.2984 10.0469 14.2886 10.0627 14.2756 10.0757C14.2626 10.0887 14.2467 10.0985 14.2293 10.1042C14.2118 10.1099 14.1932 10.1114 14.175 10.1085H13.0417C12.9834 10.1085 12.9834 10.1085 12.9834 10.1752V10.5002C12.9834 10.5668 12.9834 10.5668 13.0417 10.5668H14.1667C14.2667 10.5668 14.3 10.5668 14.3 10.7085V11.0918C14.3 11.1918 14.3 11.2252 14.1667 11.2252H12.4584C12.3084 11.2252 12.3167 11.2252 12.3167 11.0918V8.41684C12.3167 8.31684 12.3584 8.27517 12.4584 8.27517H14.125C14.2584 8.27517 14.2917 8.31684 14.2917 8.41684Z" fill="#333333"/>
<path d="M15.0001 2.16675H5.00008C4.11603 2.16675 3.26818 2.51794 2.64306 3.14306C2.01794 3.76818 1.66675 4.61603 1.66675 5.50008V15.5001C1.66675 16.3841 2.01794 17.232 2.64306 17.8571C3.26818 18.4822 4.11603 18.8334 5.00008 18.8334H15.0001C15.8841 18.8334 16.732 18.4822 17.3571 17.8571C17.9822 17.232 18.3334 16.3841 18.3334 15.5001V5.50008C18.3334 4.61603 17.9822 3.76818 17.3571 3.14306C16.732 2.51794 15.8841 2.16675 15.0001 2.16675ZM15.9167 11.3334C15.7049 11.8107 15.4242 12.2544 15.0834 12.6501C14.5384 13.2682 13.9295 13.8269 13.2667 14.3167C12.4995 14.9195 11.6995 15.4751 10.8667 15.9834C10.6084 16.1417 10.3417 16.2834 10.0751 16.4167C9.95877 16.4853 9.82673 16.5226 9.69175 16.5251C9.6617 16.5307 9.63074 16.5291 9.60145 16.5204C9.57216 16.5116 9.54538 16.496 9.52336 16.4748C9.50134 16.4536 9.48471 16.4274 9.47486 16.3985C9.46502 16.3695 9.46223 16.3386 9.46675 16.3084C9.45895 16.1947 9.45895 16.0805 9.46675 15.9667C9.522 15.7091 9.55269 15.4468 9.55841 15.1834C9.56063 15.1049 9.53969 15.0275 9.4982 14.9608C9.4567 14.8941 9.39649 14.8411 9.32508 14.8084C9.18613 14.7401 9.03693 14.6951 8.88341 14.6751C8.0815 14.5594 7.30431 14.3116 6.58341 13.9417C5.90419 13.5947 5.30081 13.1159 4.80841 12.5334C4.30466 11.9461 3.95777 11.2409 3.80008 10.4834C3.80008 10.3084 3.75008 10.1334 3.73341 9.95008C3.71675 9.76675 3.73341 9.60841 3.73341 9.43341C3.75843 8.97267 3.85981 8.51927 4.03341 8.09175C4.2594 7.52095 4.58691 6.9958 5.00008 6.54175C5.59126 5.92307 6.30318 5.43238 7.09175 5.10008C7.5887 4.90103 8.10553 4.75576 8.63341 4.66675L9.26675 4.58341H10.6751C11.6299 4.66194 12.5594 4.93114 13.4084 5.37508C14.0001 5.67925 14.5384 6.07841 15.0001 6.55841C15.4845 7.0642 15.8465 7.67425 16.0584 8.34175C16.1501 8.61091 16.2092 8.89175 16.2334 9.17508V9.71675C16.2437 10.272 16.1357 10.8231 15.9167 11.3334Z" fill="#333333"/>
<path d="M11.8667 8.40017V11.0918C11.8667 11.1835 11.8667 11.2168 11.7334 11.2168H11.3084C11.2889 11.2175 11.2695 11.2133 11.252 11.2046C11.2345 11.1959 11.2195 11.1829 11.2084 11.1668L10.5834 10.3335L10 9.54184V9.48351V11.1002C10 11.2168 10 11.2418 9.85838 11.2418H9.47505C9.44762 11.2462 9.41954 11.2406 9.39587 11.2261C9.37219 11.2116 9.35447 11.1891 9.34588 11.1627C9.34025 11.1452 9.33882 11.1266 9.34171 11.1085V8.41684C9.34047 8.40011 9.34285 8.3833 9.34869 8.36757C9.35453 8.35184 9.3637 8.33755 9.37556 8.32569C9.38743 8.31382 9.40172 8.30466 9.41745 8.29882C9.43318 8.29297 9.44998 8.2906 9.46671 8.29184H9.92505C9.94041 8.2943 9.95505 8.30004 9.968 8.30867C9.98094 8.3173 9.99187 8.32861 10 8.34184L10.9167 9.66684L11.1584 9.99184V10.0335V8.41684C11.1584 8.30851 11.2 8.26684 11.3084 8.26684H11.6834C11.8167 8.26684 11.8667 8.30851 11.8667 8.40017ZM12.9834 9.00017V9.35017C12.9834 9.41684 12.9834 9.41684 13.0417 9.41684H14.1667C14.275 9.41684 14.3084 9.45851 14.3084 9.56684V9.95017C14.3112 9.96833 14.3097 9.98691 14.3041 10.0044C14.2984 10.0219 14.2886 10.0377 14.2756 10.0507C14.2626 10.0637 14.2467 10.0735 14.2293 10.0792C14.2118 10.0849 14.1932 10.0864 14.175 10.0835H13.0417C12.9834 10.0835 12.9834 10.0835 12.9834 10.1502V10.5002C12.9834 10.5668 12.9834 10.5668 13.0417 10.5668H14.1667C14.2667 10.5668 14.3 10.5668 14.3 10.7085V11.0918C14.3 11.1918 14.3 11.2252 14.1667 11.2252H12.4584C12.3084 11.2252 12.3167 11.2252 12.3167 11.0918V8.41684C12.3167 8.31684 12.3584 8.27517 12.4584 8.27517H14.125C14.225 8.27517 14.2584 8.31684 14.2584 8.41684V8.83351C14.2584 8.92517 14.2584 8.96684 14.1334 8.96684H13.0417C12.9834 8.94184 12.9834 8.94184 12.9834 9.00017ZM7.77505 10.6835V11.1168C7.77505 11.1918 7.73338 11.2252 7.65838 11.2252H5.93338C5.83338 11.2252 5.80005 11.2252 5.80005 11.0918V8.41684C5.80005 8.30851 5.80005 8.27517 5.94172 8.27517H6.32505C6.42505 8.27517 6.45838 8.31684 6.45838 8.40851V10.5418H7.68338C7.70762 10.5445 7.73027 10.5552 7.74766 10.5723C7.76505 10.5894 7.77617 10.6118 7.77922 10.636C7.78248 10.6519 7.78103 10.6684 7.77505 10.6835ZM8.84171 8.40851V11.0918C8.84171 11.1918 8.84171 11.2252 8.70005 11.2252C8.56671 11.2335 8.43338 11.2335 8.30005 11.2252C8.28189 11.228 8.26331 11.2265 8.24584 11.2208C8.22836 11.2152 8.21247 11.2054 8.19948 11.1924C8.18648 11.1794 8.17674 11.1635 8.17104 11.1461C8.16535 11.1286 8.16387 11.11 8.16672 11.0918V8.40851C8.1623 8.38662 8.16383 8.36395 8.17114 8.34286C8.17845 8.32176 8.19128 8.30301 8.20829 8.28855C8.2253 8.27409 8.24588 8.26445 8.26788 8.26063C8.28987 8.25681 8.31249 8.25896 8.33338 8.26684H8.72505C8.74225 8.26783 8.75907 8.27237 8.77444 8.28017C8.78981 8.28797 8.80339 8.29887 8.81435 8.31217C8.82531 8.32547 8.83339 8.3409 8.8381 8.35748C8.84281 8.37406 8.84404 8.39143 8.84171 8.40851Z" fill="#333333"/>
</g>
</svg>
