<svg width="180" height="19" viewBox="0 0 180 19" fill="none" xmlns="http://www.w3.org/2000/svg">
<path d="M14.496 13.632L12.816 18H0.84V17.232H1.464C2.4 17.232 3.144 16.656 3.144 15.48V3.024C3.144 1.944 2.544 1.272 1.464 1.272H0.84V0.48H7.2V1.272H6.336C5.328 1.272 4.656 1.872 4.656 3.024V15.48C4.656 16.632 5.376 17.232 6.336 17.232H7.608C9.144 17.232 10.464 16.776 12.072 15.528C12.816 14.952 13.464 14.016 13.872 13.32L14.496 13.632ZM27.9092 18H24.8132V16.152C23.9012 16.992 22.3652 18.456 20.5652 18.456C19.1012 18.456 17.3252 17.424 17.3252 14.976V8.28C17.3252 7.752 17.0852 7.296 16.5092 7.296C16.3652 7.296 16.2932 7.296 15.7652 7.368L15.5972 6.84L18.7172 6.072V14.736C18.7172 16.416 19.6532 17.232 20.9732 17.232C21.7652 17.232 23.0612 16.992 24.8132 15.504V8.4C24.8132 7.872 24.5012 7.344 23.8292 7.344C23.5172 7.344 23.0852 7.44 22.7972 7.512L22.6052 6.984L26.2532 6.072V16.08C26.2532 16.992 26.9252 17.232 27.4292 17.232H27.9092V18ZM48.6611 18H43.5251V17.232H44.0771C45.1331 17.232 45.4451 16.536 45.4451 15.48V9.6C45.4451 8.184 44.7251 7.296 43.2851 7.296C41.3651 7.296 40.1171 8.784 39.5411 9.504V15.48C39.5411 16.416 39.8291 17.232 41.0051 17.232H41.5571V18H36.1811V17.232H36.7091C37.7651 17.232 38.0771 16.536 38.0771 15.48V9.768C38.0771 8.136 37.4531 7.296 35.7731 7.296C33.9971 7.296 32.9891 8.376 32.3651 9.048V15.48C32.3651 16.416 32.6771 17.232 33.8291 17.232H34.2131V18H29.1251V17.232H29.5571C30.6131 17.232 30.9011 16.512 30.9011 15.48V8.52C30.9011 8.04 30.5891 7.44 30.0131 7.44C29.9651 7.44 29.6771 7.44 29.3171 7.536L29.1971 7.032L32.3651 6.096V8.136C33.3491 7.272 34.5491 6.192 36.3731 6.192C37.4051 6.192 39.0371 6.576 39.3971 8.592C40.4051 7.56 41.7011 6.192 43.5971 6.192C45.6131 6.192 46.8851 7.536 46.8851 9.696V15.48C46.8851 16.704 47.2691 17.232 48.0851 17.232H48.6611V18ZM53.6319 1.248C53.6319 1.872 53.1519 2.472 52.4079 2.472C51.6879 2.472 51.1839 1.896 51.1839 1.248C51.1839 0.647999 51.6399 0.0479994 52.4079 0.0479994C53.1759 0.0479994 53.6319 0.671999 53.6319 1.248ZM54.9039 18H49.9599V17.232H50.3439C51.3999 17.232 51.7119 16.536 51.7119 15.48V8.472C51.7119 7.992 51.3999 7.368 50.7999 7.368C50.7759 7.368 50.4639 7.368 50.1279 7.488L50.0079 6.96L53.1759 6.024V15.48C53.1759 17.232 54.1839 17.232 54.9039 17.232V18ZM68.4349 18H63.1789V17.232H63.7789C64.8589 17.232 65.1469 16.512 65.1469 15.48V10.032C65.1469 8.904 64.8109 7.296 62.9389 7.296C61.2589 7.296 59.8669 8.784 59.1949 9.528V15.48C59.1949 16.44 59.4829 17.232 60.6109 17.232H61.2349V18H55.9789V17.232H56.4349C57.4909 17.232 57.7789 16.512 57.7789 15.48V8.52C57.7789 8.04 57.4669 7.44 56.8909 7.44C56.8429 7.44 56.5549 7.44 56.1949 7.536L56.0749 7.032L59.1949 6.096V8.52C60.3949 7.32 61.5709 6.192 63.3469 6.192C65.3629 6.192 66.5389 7.56 66.5389 9.696V15.48C66.5389 16.56 66.7789 17.232 67.8109 17.232H68.4349V18ZM80.1388 12.312C80.1388 15.576 77.8828 18.456 74.8828 18.456C71.8828 18.456 69.6268 15.576 69.6268 12.312C69.6268 9.12 71.8348 6.192 74.8828 6.192C77.9068 6.192 80.1388 9.096 80.1388 12.312ZM78.5068 12.312C78.5068 9.576 77.3068 6.912 74.8828 6.912C72.5068 6.912 71.2588 9.504 71.2588 12.336C71.2588 15.168 72.5068 17.736 74.8828 17.736C77.1148 17.736 78.5068 15.384 78.5068 12.312ZM93.6748 18H90.5788V16.152C89.6668 16.992 88.1308 18.456 86.3308 18.456C84.8668 18.456 83.0908 17.424 83.0908 14.976V8.28C83.0908 7.752 82.8508 7.296 82.2748 7.296C82.1308 7.296 82.0588 7.296 81.5308 7.368L81.3628 6.84L84.4828 6.072V14.736C84.4828 16.416 85.4188 17.232 86.7388 17.232C87.5308 17.232 88.8268 16.992 90.5788 15.504V8.4C90.5788 7.872 90.2668 7.344 89.5948 7.344C89.2828 7.344 88.8508 7.44 88.5628 7.512L88.3708 6.984L92.0188 6.072V16.08C92.0188 16.992 92.6908 17.232 93.1948 17.232H93.6748V18ZM104.083 15C104.083 17.208 102.379 18.456 100.483 18.456C100.027 18.456 99.5228 18.384 98.6588 18.072C98.4908 18 98.1068 17.88 97.8908 17.88C97.4108 17.88 96.7628 18.24 96.3548 18.456L94.9148 14.592L95.5628 14.304C96.1388 15.312 96.4508 15.72 97.0748 16.272C98.1308 17.184 99.2588 17.616 100.267 17.616C101.611 17.616 102.667 16.728 102.667 15.336C102.667 13.8 101.395 13.44 99.1388 12.84C96.7628 12.192 95.2028 11.496 95.2028 9.504C95.2028 8.16 96.0188 6.192 98.5868 6.192C99.1628 6.192 99.5228 6.264 100.147 6.48C100.675 6.648 100.819 6.648 100.939 6.648C101.347 6.648 101.731 6.456 102.091 6.192L103.555 9.672L103.075 9.888C102.187 8.76 100.675 6.84 98.7068 6.84C97.5548 6.84 96.4748 7.752 96.4748 9.096C96.4748 10.512 97.7948 10.824 100.003 11.376C101.779 11.808 104.083 12.504 104.083 15ZM128.139 13.248C128.139 15.504 126.147 18 121.659 18H113.499V17.232H114.219C114.819 17.232 115.923 16.752 115.923 14.976V3.144C115.923 1.992 115.467 1.272 114.315 1.272H113.499V0.48H121.323C124.611 0.48 127.107 1.8 127.107 4.536C127.107 7.392 124.467 8.208 123.243 8.592C124.203 8.784 125.283 9 126.459 9.96C127.467 10.776 128.139 11.952 128.139 13.248ZM125.283 4.656C125.283 2.616 124.131 1.272 121.659 1.272H119.355C117.891 1.272 117.435 1.872 117.435 2.928V8.28H121.683C123.555 8.28 125.283 7.2 125.283 4.656ZM126.219 13.296C126.219 11.376 125.259 9.048 121.827 9.048H117.435V15.432C117.435 16.416 117.747 17.232 119.787 17.232H121.659C124.275 17.232 126.219 16.104 126.219 13.296ZM134.921 18H129.905V17.232H130.313C131.369 17.232 131.681 16.536 131.681 15.48V2.472C131.681 1.728 131.393 1.368 130.793 1.368C130.697 1.368 130.409 1.392 130.097 1.488L129.977 0.959999L133.145 0.0479994V15.48C133.145 16.368 133.409 17.232 134.585 17.232H134.921V18ZM146.772 12.312C146.772 15.576 144.516 18.456 141.516 18.456C138.516 18.456 136.26 15.576 136.26 12.312C136.26 9.12 138.468 6.192 141.516 6.192C144.54 6.192 146.772 9.096 146.772 12.312ZM145.14 12.312C145.14 9.576 143.94 6.912 141.516 6.912C139.14 6.912 137.892 9.504 137.892 12.336C137.892 15.168 139.14 17.736 141.516 17.736C143.748 17.736 145.14 15.384 145.14 12.312ZM158.772 12.312C158.772 15.576 156.516 18.456 153.516 18.456C150.516 18.456 148.26 15.576 148.26 12.312C148.26 9.12 150.468 6.192 153.516 6.192C156.54 6.192 158.772 9.096 158.772 12.312ZM157.14 12.312C157.14 9.576 155.94 6.912 153.516 6.912C151.14 6.912 149.892 9.504 149.892 12.336C149.892 15.168 151.14 17.736 153.516 17.736C155.748 17.736 157.14 15.384 157.14 12.312ZM179.724 18H174.588V17.232H175.14C176.196 17.232 176.508 16.536 176.508 15.48V9.6C176.508 8.184 175.788 7.296 174.348 7.296C172.428 7.296 171.18 8.784 170.604 9.504V15.48C170.604 16.416 170.892 17.232 172.068 17.232H172.62V18H167.244V17.232H167.772C168.828 17.232 169.14 16.536 169.14 15.48V9.768C169.14 8.136 168.516 7.296 166.836 7.296C165.06 7.296 164.052 8.376 163.428 9.048V15.48C163.428 16.416 163.74 17.232 164.892 17.232H165.276V18H160.188V17.232H160.62C161.676 17.232 161.964 16.512 161.964 15.48V8.52C161.964 8.04 161.652 7.44 161.076 7.44C161.028 7.44 160.74 7.44 160.38 7.536L160.26 7.032L163.428 6.096V8.136C164.412 7.272 165.612 6.192 167.436 6.192C168.468 6.192 170.1 6.576 170.46 8.592C171.468 7.56 172.764 6.192 174.66 6.192C176.676 6.192 177.948 7.536 177.948 9.696V15.48C177.948 16.704 178.332 17.232 179.148 17.232H179.724V18Z" fill="#333333"/>
</svg>
